<svg width="446" height="170" viewBox="0 0 446 170" fill="none" xmlns="http://www.w3.org/2000/svg">
<path d="M0 25.6003C0 16.6394 0 12.159 1.7439 8.7364C3.27787 5.7258 5.72556 3.27811 8.73615 1.74414C12.1587 0.000244141 16.6392 0.000244141 25.6 0.000244141H420.4C429.361 0.000244141 433.841 0.000244141 437.264 1.74414C440.274 3.27811 442.722 5.7258 444.256 8.7364C446 12.159 446 16.6394 446 25.6002V144.4C446 153.361 446 157.842 444.256 161.264C442.722 164.275 440.274 166.722 437.264 168.256C433.841 170 429.361 170 420.4 170H25.6C16.6392 170 12.1587 170 8.73615 168.256C5.72556 166.722 3.27787 164.275 1.7439 161.264C0 157.842 0 153.361 0 144.4V25.6003Z" fill="#F9F9FB"/>
<path d="M33.1055 40.5022C33.1055 41.2639 32.918 41.9202 32.543 42.4709C32.1738 43.0217 31.6406 43.4436 30.9434 43.7366C30.252 44.0295 29.4258 44.176 28.4648 44.176C27.9961 44.176 27.5479 44.1497 27.1201 44.0969C26.6924 44.0442 26.2881 43.968 25.9072 43.8684C25.5322 43.7629 25.1895 43.637 24.8789 43.4905V41.5042C25.4004 41.7327 25.9834 41.9407 26.6279 42.1282C27.2725 42.3098 27.9287 42.4006 28.5967 42.4006C29.1416 42.4006 29.5928 42.3303 29.9502 42.1897C30.3135 42.0432 30.583 41.8381 30.7588 41.5745C30.9346 41.3049 31.0225 40.9915 31.0225 40.634C31.0225 40.2532 30.9199 39.9309 30.7148 39.6672C30.5098 39.4036 30.1992 39.1633 29.7832 38.9465C29.373 38.7239 28.8574 38.4866 28.2363 38.2346C27.8145 38.0647 27.4102 37.8713 27.0234 37.6545C26.6426 37.4377 26.3027 37.1829 26.0039 36.8899C25.7051 36.5969 25.4678 36.2512 25.292 35.8528C25.1221 35.4485 25.0371 34.9739 25.0371 34.429C25.0371 33.7024 25.21 33.0813 25.5557 32.5657C25.9072 32.05 26.3994 31.6545 27.0322 31.3792C27.6709 31.1038 28.415 30.9661 29.2646 30.9661C29.9385 30.9661 30.5713 31.0364 31.1631 31.177C31.7607 31.3176 32.3467 31.5168 32.9209 31.7747L32.2529 33.4709C31.7256 33.2542 31.2129 33.0813 30.7148 32.9524C30.2227 32.8235 29.7188 32.759 29.2031 32.759C28.7578 32.759 28.3799 32.8264 28.0693 32.9612C27.7588 33.0959 27.5215 33.2864 27.3574 33.5325C27.1992 33.7727 27.1201 34.0598 27.1201 34.3938C27.1201 34.7688 27.2109 35.0852 27.3926 35.343C27.5801 35.595 27.8672 35.8264 28.2539 36.0374C28.6465 36.2483 29.1504 36.4827 29.7656 36.7405C30.4746 37.0334 31.0752 37.3411 31.5674 37.6633C32.0654 37.9856 32.4463 38.3723 32.71 38.8235C32.9736 39.2688 33.1055 39.8284 33.1055 40.5022ZM38.9941 42.5061C39.2637 42.5061 39.5303 42.4827 39.7939 42.4358C40.0576 42.3831 40.2979 42.3215 40.5146 42.2512V43.8157C40.2861 43.9153 39.9902 44.0002 39.627 44.0706C39.2637 44.1409 38.8857 44.176 38.4932 44.176C37.9424 44.176 37.4473 44.0852 37.0078 43.9036C36.5684 43.7161 36.2197 43.3967 35.9619 42.9456C35.7041 42.4944 35.5752 41.8704 35.5752 41.0735V35.844H34.248V34.9211L35.6719 34.1917L36.3486 32.1086H37.6494V34.2708H40.4355V35.844H37.6494V41.0471C37.6494 41.5393 37.7725 41.9055 38.0186 42.1458C38.2646 42.386 38.5898 42.5061 38.9941 42.5061ZM44.5576 34.2708V44.0002H42.4922V34.2708H44.5576ZM43.5381 30.5442C43.8545 30.5442 44.127 30.6292 44.3555 30.7991C44.5898 30.969 44.707 31.262 44.707 31.678C44.707 32.0881 44.5898 32.3811 44.3555 32.5569C44.127 32.7268 43.8545 32.8118 43.5381 32.8118C43.21 32.8118 42.9316 32.7268 42.7031 32.5569C42.4805 32.3811 42.3691 32.0881 42.3691 31.678C42.3691 31.262 42.4805 30.969 42.7031 30.7991C42.9316 30.6292 43.21 30.5442 43.5381 30.5442ZM49.5938 44.0002H47.5195V30.3245H49.5938V44.0002ZM54.6211 44.0002H52.5469V30.3245H54.6211V44.0002ZM67.3213 34.0862C68.417 34.0862 69.2695 34.3704 69.8789 34.9387C70.4941 35.5012 70.8018 36.4065 70.8018 37.6545V44.0002H68.7363V38.0413C68.7363 37.2854 68.5811 36.72 68.2705 36.345C67.96 35.9641 67.4795 35.7737 66.8291 35.7737C65.8857 35.7737 65.2295 36.0637 64.8604 36.6438C64.4971 37.2239 64.3154 38.0647 64.3154 39.1663V44.0002H62.25V34.2708H63.8584L64.1484 35.5891H64.2627C64.4736 35.2493 64.7344 34.9709 65.0449 34.7542C65.3613 34.5315 65.7129 34.3645 66.0996 34.2532C66.4922 34.1418 66.8994 34.0862 67.3213 34.0862ZM77.5693 34.0862C78.4365 34.0862 79.1807 34.2649 79.8018 34.6223C80.4229 34.9797 80.9004 35.4866 81.2344 36.1428C81.5684 36.7991 81.7354 37.5842 81.7354 38.4983V39.6057H75.2402C75.2637 40.5491 75.5156 41.2756 75.9961 41.7854C76.4824 42.2952 77.1621 42.55 78.0352 42.55C78.6562 42.55 79.2129 42.4915 79.7051 42.3743C80.2031 42.2512 80.7158 42.0725 81.2432 41.8381V43.5168C80.7568 43.7454 80.2617 43.9124 79.7578 44.0178C79.2539 44.1233 78.6504 44.176 77.9473 44.176C76.9922 44.176 76.1514 43.9915 75.4248 43.6223C74.7041 43.2473 74.1387 42.6907 73.7285 41.9524C73.3242 41.2141 73.1221 40.2971 73.1221 39.2014C73.1221 38.1116 73.3066 37.1858 73.6758 36.4241C74.0449 35.6624 74.5635 35.0823 75.2314 34.6838C75.8994 34.2854 76.6787 34.0862 77.5693 34.0862ZM77.5693 35.6418C76.9189 35.6418 76.3916 35.8528 75.9873 36.2747C75.5889 36.6965 75.3545 37.3147 75.2842 38.1292H79.7139C79.708 37.6428 79.626 37.2122 79.4678 36.8372C79.3154 36.4622 79.0811 36.1692 78.7646 35.9583C78.4541 35.7473 78.0557 35.6418 77.5693 35.6418ZM87.9404 34.0862C88.8076 34.0862 89.5518 34.2649 90.1729 34.6223C90.7939 34.9797 91.2715 35.4866 91.6055 36.1428C91.9395 36.7991 92.1064 37.5842 92.1064 38.4983V39.6057H85.6113C85.6348 40.5491 85.8867 41.2756 86.3672 41.7854C86.8535 42.2952 87.5332 42.55 88.4062 42.55C89.0273 42.55 89.584 42.4915 90.0762 42.3743C90.5742 42.2512 91.0869 42.0725 91.6143 41.8381V43.5168C91.1279 43.7454 90.6328 43.9124 90.1289 44.0178C89.625 44.1233 89.0215 44.176 88.3184 44.176C87.3633 44.176 86.5225 43.9915 85.7959 43.6223C85.0752 43.2473 84.5098 42.6907 84.0996 41.9524C83.6953 41.2141 83.4932 40.2971 83.4932 39.2014C83.4932 38.1116 83.6777 37.1858 84.0469 36.4241C84.416 35.6624 84.9346 35.0823 85.6025 34.6838C86.2705 34.2854 87.0498 34.0862 87.9404 34.0862ZM87.9404 35.6418C87.29 35.6418 86.7627 35.8528 86.3584 36.2747C85.96 36.6965 85.7256 37.3147 85.6553 38.1292H90.085C90.0791 37.6428 89.9971 37.2122 89.8389 36.8372C89.6865 36.4622 89.4521 36.1692 89.1357 35.9583C88.8252 35.7473 88.4268 35.6418 87.9404 35.6418ZM97.7051 44.176C96.5449 44.176 95.6133 43.7542 94.9102 42.9104C94.2129 42.0608 93.8643 40.8098 93.8643 39.1575C93.8643 37.4875 94.2188 36.2249 94.9277 35.3694C95.6426 34.5139 96.583 34.0862 97.749 34.0862C98.2412 34.0862 98.6719 34.1536 99.041 34.2883C99.4102 34.4172 99.7266 34.593 99.9902 34.8157C100.26 35.0383 100.488 35.2874 100.676 35.5627H100.772C100.743 35.3811 100.708 35.1204 100.667 34.7805C100.632 34.4348 100.614 34.1155 100.614 33.8225V30.3245H102.688V44.0002H101.071L100.702 42.6731H100.614C100.438 42.9543 100.216 43.2092 99.9463 43.4377C99.6826 43.6604 99.3662 43.8391 98.9971 43.9739C98.6338 44.1086 98.2031 44.176 97.7051 44.176ZM98.2852 42.4973C99.1699 42.4973 99.7939 42.2424 100.157 41.7327C100.521 41.2229 100.708 40.4583 100.72 39.4387V39.1663C100.72 38.0764 100.544 37.2415 100.192 36.6614C99.8408 36.0754 99.1992 35.7825 98.2676 35.7825C97.5234 35.7825 96.9551 36.0842 96.5625 36.6877C96.1758 37.2854 95.9824 38.1204 95.9824 39.1926C95.9824 40.2649 96.1758 41.0852 96.5625 41.6536C96.9551 42.2161 97.5293 42.4973 98.2852 42.4973ZM112.392 30.3245V33.761C112.392 34.1184 112.38 34.467 112.356 34.8069C112.339 35.1467 112.318 35.4104 112.295 35.5979H112.409C112.614 35.2581 112.866 34.9797 113.165 34.7629C113.464 34.5403 113.798 34.3733 114.167 34.262C114.542 34.1506 114.94 34.095 115.362 34.095C116.106 34.095 116.739 34.2209 117.261 34.4729C117.782 34.719 118.181 35.1028 118.456 35.6243C118.737 36.1458 118.878 36.8225 118.878 37.6545V44.0002H116.812V38.0413C116.812 37.2854 116.657 36.72 116.347 36.345C116.036 35.9641 115.556 35.7737 114.905 35.7737C114.278 35.7737 113.78 35.9055 113.411 36.1692C113.048 36.427 112.787 36.8108 112.629 37.3206C112.471 37.8245 112.392 38.4397 112.392 39.1663V44.0002H110.326V30.3245H112.392ZM125.646 34.0862C126.513 34.0862 127.257 34.2649 127.878 34.6223C128.499 34.9797 128.977 35.4866 129.311 36.1428C129.645 36.7991 129.812 37.5842 129.812 38.4983V39.6057H123.316C123.34 40.5491 123.592 41.2756 124.072 41.7854C124.559 42.2952 125.238 42.55 126.111 42.55C126.732 42.55 127.289 42.4915 127.781 42.3743C128.279 42.2512 128.792 42.0725 129.319 41.8381V43.5168C128.833 43.7454 128.338 43.9124 127.834 44.0178C127.33 44.1233 126.727 44.176 126.023 44.176C125.068 44.176 124.228 43.9915 123.501 43.6223C122.78 43.2473 122.215 42.6907 121.805 41.9524C121.4 41.2141 121.198 40.2971 121.198 39.2014C121.198 38.1116 121.383 37.1858 121.752 36.4241C122.121 35.6624 122.64 35.0823 123.308 34.6838C123.976 34.2854 124.755 34.0862 125.646 34.0862ZM125.646 35.6418C124.995 35.6418 124.468 35.8528 124.063 36.2747C123.665 36.6965 123.431 37.3147 123.36 38.1292H127.79C127.784 37.6428 127.702 37.2122 127.544 36.8372C127.392 36.4622 127.157 36.1692 126.841 35.9583C126.53 35.7473 126.132 35.6418 125.646 35.6418ZM134.215 44.0002H132.141V30.3245H134.215V44.0002ZM142.16 34.0862C143.314 34.0862 144.24 34.5081 144.938 35.3518C145.641 36.1956 145.992 37.4495 145.992 39.1135C145.992 40.2151 145.828 41.1438 145.5 41.8997C145.178 42.6497 144.724 43.218 144.138 43.6047C143.558 43.9856 142.881 44.176 142.107 44.176C141.615 44.176 141.188 44.1116 140.824 43.9827C140.461 43.8538 140.15 43.6868 139.893 43.4817C139.635 43.2708 139.418 43.0422 139.242 42.7961H139.119C139.148 43.0305 139.175 43.2913 139.198 43.5784C139.228 43.8596 139.242 44.1174 139.242 44.3518V48.3157H137.168V34.2708H138.855L139.146 35.6155H139.242C139.424 35.3401 139.644 35.0852 139.901 34.8508C140.165 34.6165 140.481 34.4319 140.851 34.2971C141.226 34.1565 141.662 34.0862 142.16 34.0862ZM141.606 35.7737C141.038 35.7737 140.581 35.8879 140.235 36.1165C139.896 36.3391 139.646 36.676 139.488 37.1272C139.336 37.5784 139.254 38.1438 139.242 38.8235V39.1135C139.242 39.8342 139.315 40.4465 139.462 40.9504C139.614 41.4485 139.863 41.8293 140.209 42.093C140.561 42.3508 141.035 42.4797 141.633 42.4797C142.137 42.4797 142.553 42.342 142.881 42.0667C143.215 41.7913 143.464 41.3987 143.628 40.8889C143.792 40.3792 143.874 39.7786 143.874 39.0872C143.874 38.0383 143.687 37.2239 143.312 36.6438C142.942 36.0637 142.374 35.7737 141.606 35.7737ZM149.385 40.0803V39.5266C149.385 39.093 149.435 38.7151 149.534 38.3928C149.634 38.0706 149.801 37.7688 150.035 37.4875C150.27 37.2004 150.586 36.9016 150.984 36.5911C151.395 36.2688 151.72 35.9905 151.96 35.7561C152.206 35.5217 152.382 35.2874 152.487 35.053C152.599 34.8127 152.654 34.5344 152.654 34.218C152.654 33.72 152.484 33.342 152.145 33.0842C151.811 32.8206 151.339 32.6887 150.729 32.6887C150.19 32.6887 149.684 32.7649 149.209 32.9172C148.734 33.0696 148.266 33.26 147.803 33.4885L147.073 31.9417C147.606 31.6487 148.184 31.4143 148.805 31.2385C149.432 31.0569 150.12 30.9661 150.87 30.9661C152.065 30.9661 152.988 31.2561 153.639 31.8362C154.295 32.4163 154.623 33.1809 154.623 34.1301C154.623 34.6516 154.541 35.0999 154.377 35.4749C154.213 35.844 153.97 36.1868 153.647 36.5032C153.331 36.8137 152.947 37.1418 152.496 37.4875C152.127 37.7805 151.843 38.0354 151.644 38.2522C151.45 38.4631 151.315 38.677 151.239 38.8938C151.169 39.1106 151.134 39.3713 151.134 39.676V40.0803H149.385ZM149.051 42.9104C149.051 42.4299 149.174 42.093 149.42 41.8997C149.672 41.7004 149.979 41.6008 150.343 41.6008C150.694 41.6008 150.996 41.7004 151.248 41.8997C151.5 42.093 151.626 42.4299 151.626 42.9104C151.626 43.3792 151.5 43.719 151.248 43.9299C150.996 44.135 150.694 44.2375 150.343 44.2375C149.979 44.2375 149.672 44.135 149.42 43.9299C149.174 43.719 149.051 43.3792 149.051 42.9104ZM40.8838 57.1506L37.5264 70.0002H35.2236L33.0791 62.301C33.0264 62.1135 32.9678 61.8909 32.9033 61.6331C32.8389 61.3752 32.7744 61.1116 32.71 60.842C32.6514 60.5725 32.5986 60.3264 32.5518 60.1038C32.5107 59.8752 32.4814 59.6995 32.4639 59.5764C32.4521 59.6995 32.4258 59.8723 32.3848 60.095C32.3438 60.3176 32.2939 60.5637 32.2354 60.8333C32.1826 61.0969 32.124 61.3606 32.0596 61.6243C31.9951 61.8821 31.9365 62.1106 31.8838 62.3098L29.7744 70.0002H27.4805L24.1318 57.1506H26.25L28.1045 64.6829C28.1631 64.9231 28.2217 65.1838 28.2803 65.4651C28.3447 65.7405 28.4033 66.0188 28.4561 66.3C28.5146 66.5813 28.5674 66.8567 28.6143 67.1262C28.6611 67.3899 28.6992 67.6301 28.7285 67.8469C28.7578 67.6243 28.7959 67.3782 28.8428 67.1086C28.8896 66.8333 28.9395 66.5549 28.9922 66.2737C29.0508 65.9866 29.1094 65.7112 29.168 65.4475C29.2324 65.1838 29.2969 64.9465 29.3613 64.7356L31.4531 57.1506H33.5098L35.6455 64.762C35.71 64.9788 35.7715 65.2219 35.8301 65.4915C35.8945 65.761 35.9561 66.0364 36.0146 66.3176C36.0732 66.5989 36.126 66.8713 36.1729 67.135C36.2197 67.3987 36.2578 67.636 36.2871 67.8469C36.3281 67.5598 36.3809 67.2317 36.4453 66.8625C36.5098 66.4934 36.583 66.1184 36.665 65.7375C36.7471 65.3567 36.8291 65.0051 36.9111 64.6829L38.7568 57.1506H40.8838ZM46.3682 60.0862C47.2354 60.0862 47.9795 60.2649 48.6006 60.6223C49.2217 60.9797 49.6992 61.4866 50.0332 62.1428C50.3672 62.7991 50.5342 63.5842 50.5342 64.4983V65.6057H44.0391C44.0625 66.5491 44.3145 67.2756 44.7949 67.7854C45.2812 68.2952 45.9609 68.55 46.834 68.55C47.4551 68.55 48.0117 68.4915 48.5039 68.3743C49.002 68.2512 49.5146 68.0725 50.042 67.8381V69.5168C49.5557 69.7454 49.0605 69.9124 48.5566 70.0178C48.0527 70.1233 47.4492 70.176 46.7461 70.176C45.791 70.176 44.9502 69.9915 44.2236 69.6223C43.5029 69.2473 42.9375 68.6907 42.5273 67.9524C42.123 67.2141 41.9209 66.2971 41.9209 65.2014C41.9209 64.1116 42.1055 63.1858 42.4746 62.4241C42.8438 61.6624 43.3623 61.0823 44.0303 60.6838C44.6982 60.2854 45.4775 60.0862 46.3682 60.0862ZM46.3682 61.6418C45.7178 61.6418 45.1904 61.8528 44.7861 62.2747C44.3877 62.6965 44.1533 63.3147 44.083 64.1292H48.5127C48.5068 63.6428 48.4248 63.2122 48.2666 62.8372C48.1143 62.4622 47.8799 62.1692 47.5635 61.9583C47.2529 61.7473 46.8545 61.6418 46.3682 61.6418ZM54.5156 57.1506L54.6475 57.344C54.542 57.7717 54.4043 58.2288 54.2344 58.7151C54.0703 59.2014 53.8916 59.6877 53.6982 60.1741C53.5049 60.6604 53.3086 61.1204 53.1094 61.554H51.6152C51.6973 61.2083 51.7822 60.845 51.8701 60.4641C51.958 60.0774 52.043 59.6907 52.125 59.304C52.207 58.9114 52.2803 58.5334 52.3447 58.1702C52.4092 57.801 52.4648 57.4612 52.5117 57.1506H54.5156ZM61.2744 60.0862C61.4385 60.0862 61.6172 60.095 61.8105 60.1125C62.0039 60.1301 62.1709 60.1536 62.3115 60.1829L62.1182 62.1165C61.9951 62.0813 61.8428 62.0549 61.6611 62.0374C61.4854 62.0198 61.3271 62.011 61.1865 62.011C60.8174 62.011 60.4658 62.0725 60.1318 62.1956C59.7979 62.3127 59.502 62.4944 59.2441 62.7405C58.9863 62.9807 58.7842 63.2825 58.6377 63.6458C58.4912 64.009 58.418 64.4309 58.418 64.9114V70.0002H56.3438V60.2708H57.9609L58.2422 61.9846H58.3389C58.5322 61.6389 58.7725 61.3225 59.0596 61.0354C59.3467 60.7483 59.6748 60.5198 60.0439 60.3499C60.4189 60.1741 60.8291 60.0862 61.2744 60.0862ZM67.9893 60.0862C68.8564 60.0862 69.6006 60.2649 70.2217 60.6223C70.8428 60.9797 71.3203 61.4866 71.6543 62.1428C71.9883 62.7991 72.1553 63.5842 72.1553 64.4983V65.6057H65.6602C65.6836 66.5491 65.9355 67.2756 66.416 67.7854C66.9023 68.2952 67.582 68.55 68.4551 68.55C69.0762 68.55 69.6328 68.4915 70.125 68.3743C70.623 68.2512 71.1357 68.0725 71.6631 67.8381V69.5168C71.1768 69.7454 70.6816 69.9124 70.1777 70.0178C69.6738 70.1233 69.0703 70.176 68.3672 70.176C67.4121 70.176 66.5713 69.9915 65.8447 69.6223C65.124 69.2473 64.5586 68.6907 64.1484 67.9524C63.7441 67.2141 63.542 66.2971 63.542 65.2014C63.542 64.1116 63.7266 63.1858 64.0957 62.4241C64.4648 61.6624 64.9834 61.0823 65.6514 60.6838C66.3193 60.2854 67.0986 60.0862 67.9893 60.0862ZM67.9893 61.6418C67.3389 61.6418 66.8115 61.8528 66.4072 62.2747C66.0088 62.6965 65.7744 63.3147 65.7041 64.1292H70.1338C70.1279 63.6428 70.0459 63.2122 69.8877 62.8372C69.7354 62.4622 69.501 62.1692 69.1846 61.9583C68.874 61.7473 68.4756 61.6418 67.9893 61.6418ZM81.2256 56.3245V59.761C81.2256 60.1184 81.2139 60.467 81.1904 60.8069C81.1729 61.1467 81.1523 61.4104 81.1289 61.5979H81.2432C81.4482 61.2581 81.7002 60.9797 81.999 60.7629C82.2979 60.5403 82.6318 60.3733 83.001 60.262C83.376 60.1506 83.7744 60.095 84.1963 60.095C84.9404 60.095 85.5732 60.2209 86.0947 60.4729C86.6162 60.719 87.0146 61.1028 87.29 61.6243C87.5713 62.1458 87.7119 62.8225 87.7119 63.6545V70.0002H85.6465V64.0413C85.6465 63.2854 85.4912 62.72 85.1807 62.345C84.8701 61.9641 84.3896 61.7737 83.7393 61.7737C83.1123 61.7737 82.6143 61.9055 82.2451 62.1692C81.8818 62.427 81.6211 62.8108 81.4629 63.3206C81.3047 63.8245 81.2256 64.4397 81.2256 65.1663V70.0002H79.1602V56.3245H81.2256ZM94.4795 60.0862C95.3467 60.0862 96.0908 60.2649 96.7119 60.6223C97.333 60.9797 97.8105 61.4866 98.1445 62.1428C98.4785 62.7991 98.6455 63.5842 98.6455 64.4983V65.6057H92.1504C92.1738 66.5491 92.4258 67.2756 92.9062 67.7854C93.3926 68.2952 94.0723 68.55 94.9453 68.55C95.5664 68.55 96.123 68.4915 96.6152 68.3743C97.1133 68.2512 97.626 68.0725 98.1533 67.8381V69.5168C97.667 69.7454 97.1719 69.9124 96.668 70.0178C96.1641 70.1233 95.5605 70.176 94.8574 70.176C93.9023 70.176 93.0615 69.9915 92.335 69.6223C91.6143 69.2473 91.0488 68.6907 90.6387 67.9524C90.2344 67.2141 90.0322 66.2971 90.0322 65.2014C90.0322 64.1116 90.2168 63.1858 90.5859 62.4241C90.9551 61.6624 91.4736 61.0823 92.1416 60.6838C92.8096 60.2854 93.5889 60.0862 94.4795 60.0862ZM94.4795 61.6418C93.8291 61.6418 93.3018 61.8528 92.8975 62.2747C92.499 62.6965 92.2646 63.3147 92.1943 64.1292H96.624C96.6182 63.6428 96.5361 63.2122 96.3779 62.8372C96.2256 62.4622 95.9912 62.1692 95.6748 61.9583C95.3643 61.7473 94.9658 61.6418 94.4795 61.6418ZM105.905 60.0862C106.069 60.0862 106.248 60.095 106.441 60.1125C106.635 60.1301 106.802 60.1536 106.942 60.1829L106.749 62.1165C106.626 62.0813 106.474 62.0549 106.292 62.0374C106.116 62.0198 105.958 62.011 105.817 62.011C105.448 62.011 105.097 62.0725 104.763 62.1956C104.429 62.3127 104.133 62.4944 103.875 62.7405C103.617 62.9807 103.415 63.2825 103.269 63.6458C103.122 64.009 103.049 64.4309 103.049 64.9114V70.0002H100.975V60.2708H102.592L102.873 61.9846H102.97C103.163 61.6389 103.403 61.3225 103.69 61.0354C103.978 60.7483 104.306 60.5198 104.675 60.3499C105.05 60.1741 105.46 60.0862 105.905 60.0862ZM112.62 60.0862C113.487 60.0862 114.231 60.2649 114.853 60.6223C115.474 60.9797 115.951 61.4866 116.285 62.1428C116.619 62.7991 116.786 63.5842 116.786 64.4983V65.6057H110.291C110.314 66.5491 110.566 67.2756 111.047 67.7854C111.533 68.2952 112.213 68.55 113.086 68.55C113.707 68.55 114.264 68.4915 114.756 68.3743C115.254 68.2512 115.767 68.0725 116.294 67.8381V69.5168C115.808 69.7454 115.312 69.9124 114.809 70.0178C114.305 70.1233 113.701 70.176 112.998 70.176C112.043 70.176 111.202 69.9915 110.476 69.6223C109.755 69.2473 109.189 68.6907 108.779 67.9524C108.375 67.2141 108.173 66.2971 108.173 65.2014C108.173 64.1116 108.357 63.1858 108.727 62.4241C109.096 61.6624 109.614 61.0823 110.282 60.6838C110.95 60.2854 111.729 60.0862 112.62 60.0862ZM112.62 61.6418C111.97 61.6418 111.442 61.8528 111.038 62.2747C110.64 62.6965 110.405 63.3147 110.335 64.1292H114.765C114.759 63.6428 114.677 63.2122 114.519 62.8372C114.366 62.4622 114.132 62.1692 113.815 61.9583C113.505 61.7473 113.106 61.6418 112.62 61.6418ZM128.651 61.844H126.287V70.0002H124.222V61.844H122.631V60.8508L124.222 60.2444V59.5676C124.222 58.7415 124.351 58.0852 124.608 57.5989C124.872 57.1125 125.247 56.7639 125.733 56.553C126.226 56.3362 126.812 56.2278 127.491 56.2278C127.937 56.2278 128.344 56.2659 128.713 56.342C129.082 56.4124 129.393 56.4944 129.645 56.5881L129.108 58.1526C128.909 58.0881 128.687 58.0295 128.44 57.9768C128.194 57.9182 127.931 57.8889 127.649 57.8889C127.181 57.8889 126.835 58.0354 126.612 58.3284C126.396 58.6213 126.287 59.0491 126.287 59.6116V60.2708H128.651V61.844ZM138.926 65.1135C138.926 65.9221 138.82 66.6399 138.609 67.2668C138.398 67.8938 138.091 68.4241 137.687 68.8577C137.282 69.2854 136.796 69.6135 136.228 69.842C135.659 70.0647 135.018 70.176 134.303 70.176C133.635 70.176 133.022 70.0647 132.466 69.842C131.909 69.6135 131.426 69.2854 131.016 68.8577C130.611 68.4241 130.298 67.8938 130.075 67.2668C129.853 66.6399 129.741 65.9221 129.741 65.1135C129.741 64.0413 129.926 63.1331 130.295 62.3889C130.67 61.6389 131.203 61.0676 131.895 60.675C132.586 60.2825 133.409 60.0862 134.364 60.0862C135.261 60.0862 136.052 60.2825 136.737 60.675C137.423 61.0676 137.959 61.6389 138.346 62.3889C138.732 63.1389 138.926 64.0471 138.926 65.1135ZM131.868 65.1135C131.868 65.8225 131.953 66.429 132.123 66.9329C132.299 67.4368 132.568 67.8235 132.932 68.093C133.295 68.3567 133.764 68.4885 134.338 68.4885C134.912 68.4885 135.381 68.3567 135.744 68.093C136.107 67.8235 136.374 67.4368 136.544 66.9329C136.714 66.429 136.799 65.8225 136.799 65.1135C136.799 64.4045 136.714 63.804 136.544 63.3118C136.374 62.8137 136.107 62.4358 135.744 62.178C135.381 61.9143 134.909 61.7825 134.329 61.7825C133.474 61.7825 132.85 62.0696 132.457 62.6438C132.064 63.218 131.868 64.0413 131.868 65.1135ZM146.229 60.0862C146.394 60.0862 146.572 60.095 146.766 60.1125C146.959 60.1301 147.126 60.1536 147.267 60.1829L147.073 62.1165C146.95 62.0813 146.798 62.0549 146.616 62.0374C146.44 62.0198 146.282 62.011 146.142 62.011C145.772 62.011 145.421 62.0725 145.087 62.1956C144.753 62.3127 144.457 62.4944 144.199 62.7405C143.941 62.9807 143.739 63.2825 143.593 63.6458C143.446 64.009 143.373 64.4309 143.373 64.9114V70.0002H141.299V60.2708H142.916L143.197 61.9846H143.294C143.487 61.6389 143.728 61.3225 144.015 61.0354C144.302 60.7483 144.63 60.5198 144.999 60.3499C145.374 60.1741 145.784 60.0862 146.229 60.0862ZM152.276 60.2708H154.526L156.521 65.8254C156.609 66.0774 156.688 66.3264 156.759 66.5725C156.835 66.8127 156.899 67.05 156.952 67.2844C157.011 67.5188 157.058 67.7532 157.093 67.9875H157.146C157.204 67.6829 157.286 67.343 157.392 66.968C157.503 66.5872 157.626 66.2063 157.761 65.8254L159.677 60.2708H161.9L157.726 71.3362C157.485 71.969 157.189 72.5081 156.838 72.9534C156.492 73.4045 156.082 73.7444 155.607 73.9729C155.133 74.2073 154.591 74.3245 153.981 74.3245C153.688 74.3245 153.434 74.3069 153.217 74.2717C153 74.2424 152.815 74.2102 152.663 74.175V72.5227C152.786 72.552 152.941 72.5784 153.129 72.6018C153.316 72.6252 153.51 72.637 153.709 72.637C154.078 72.637 154.397 72.5637 154.667 72.4172C154.937 72.2708 155.165 72.0627 155.353 71.7932C155.54 71.5295 155.695 71.2278 155.818 70.8879L156.161 69.9739L152.276 60.2708ZM171.99 65.1135C171.99 65.9221 171.885 66.6399 171.674 67.2668C171.463 67.8938 171.155 68.4241 170.751 68.8577C170.347 69.2854 169.86 69.6135 169.292 69.842C168.724 70.0647 168.082 70.176 167.367 70.176C166.699 70.176 166.087 70.0647 165.53 69.842C164.974 69.6135 164.49 69.2854 164.08 68.8577C163.676 68.4241 163.362 67.8938 163.14 67.2668C162.917 66.6399 162.806 65.9221 162.806 65.1135C162.806 64.0413 162.99 63.1331 163.359 62.3889C163.734 61.6389 164.268 61.0676 164.959 60.675C165.65 60.2825 166.474 60.0862 167.429 60.0862C168.325 60.0862 169.116 60.2825 169.802 60.675C170.487 61.0676 171.023 61.6389 171.41 62.3889C171.797 63.1389 171.99 64.0471 171.99 65.1135ZM164.933 65.1135C164.933 65.8225 165.018 66.429 165.188 66.9329C165.363 67.4368 165.633 67.8235 165.996 68.093C166.359 68.3567 166.828 68.4885 167.402 68.4885C167.977 68.4885 168.445 68.3567 168.809 68.093C169.172 67.8235 169.438 67.4368 169.608 66.9329C169.778 66.429 169.863 65.8225 169.863 65.1135C169.863 64.4045 169.778 63.804 169.608 63.3118C169.438 62.8137 169.172 62.4358 168.809 62.178C168.445 61.9143 167.974 61.7825 167.394 61.7825C166.538 61.7825 165.914 62.0696 165.521 62.6438C165.129 63.218 164.933 64.0413 164.933 65.1135ZM182.845 60.2708V70.0002H181.219L180.938 68.6907H180.823C180.618 69.0247 180.357 69.303 180.041 69.5256C179.725 69.7424 179.373 69.9036 178.986 70.009C178.6 70.1204 178.192 70.176 177.765 70.176C177.032 70.176 176.405 70.053 175.884 69.8069C175.368 69.5549 174.973 69.1682 174.697 68.6467C174.422 68.1252 174.284 67.4514 174.284 66.6252V60.2708H176.358V66.2385C176.358 66.9944 176.511 67.5598 176.815 67.9348C177.126 68.3098 177.606 68.4973 178.257 68.4973C178.884 68.4973 179.382 68.3684 179.751 68.1106C180.12 67.8528 180.381 67.4719 180.533 66.968C180.691 66.4641 180.771 65.8459 180.771 65.1135V60.2708H182.845ZM185.508 68.9104C185.508 68.4299 185.631 68.093 185.877 67.8997C186.129 67.7004 186.434 67.6008 186.791 67.6008C187.148 67.6008 187.453 67.7004 187.705 67.8997C187.963 68.093 188.092 68.4299 188.092 68.9104C188.092 69.3792 187.963 69.719 187.705 69.9299C187.453 70.135 187.148 70.2375 186.791 70.2375C186.434 70.2375 186.129 70.135 185.877 69.9299C185.631 69.719 185.508 69.3792 185.508 68.9104Z" fill="#1C2024"/>
<path d="M24 115.2C24 108.48 24 105.119 25.3079 102.552C26.4584 100.294 28.2942 98.4586 30.5521 97.3082C33.1191 96.0002 36.4794 96.0002 43.2 96.0002H133.8C140.521 96.0002 143.881 96.0002 146.448 97.3082C148.706 98.4586 150.542 100.294 151.692 102.552C153 105.119 153 108.48 153 115.2V126.8C153 133.521 153 136.881 151.692 139.448C150.542 141.706 148.706 143.542 146.448 144.692C143.881 146 140.521 146 133.8 146H43.2C36.4794 146 33.1191 146 30.5521 144.692C28.2942 143.542 26.4584 141.706 25.3079 139.448C24 136.881 24 133.521 24 126.8V115.2Z" fill="black"/>
<path d="M46.3672 117.008C45.8203 117.008 45.3307 117.107 44.8984 117.305C44.4714 117.503 44.1094 117.789 43.8125 118.164C43.5156 118.534 43.2891 118.985 43.1328 119.516C42.9766 120.042 42.8984 120.636 42.8984 121.297C42.8984 122.183 43.0234 122.946 43.2734 123.586C43.5234 124.222 43.9036 124.711 44.4141 125.055C44.9245 125.393 45.5703 125.563 46.3516 125.563C46.8359 125.563 47.3073 125.516 47.7656 125.422C48.224 125.328 48.6979 125.201 49.1875 125.039V126.633C48.724 126.815 48.2552 126.948 47.7812 127.031C47.3073 127.115 46.7604 127.156 46.1406 127.156C44.974 127.156 44.0052 126.914 43.2344 126.43C42.4688 125.946 41.8958 125.263 41.5156 124.383C41.1406 123.503 40.9531 122.472 40.9531 121.289C40.9531 120.425 41.0729 119.633 41.3125 118.914C41.5521 118.196 41.901 117.576 42.3594 117.055C42.8177 116.529 43.3828 116.125 44.0547 115.844C44.7318 115.558 45.5052 115.414 46.375 115.414C46.9479 115.414 47.5104 115.479 48.0625 115.61C48.6198 115.735 49.1354 115.914 49.6094 116.149L48.9531 117.696C48.5573 117.508 48.1432 117.347 47.7109 117.211C47.2786 117.076 46.8307 117.008 46.3672 117.008ZM53.2891 114.844V117.899C53.2891 118.216 53.2786 118.526 53.2578 118.828C53.2422 119.13 53.224 119.365 53.2031 119.531H53.3047C53.487 119.229 53.7109 118.982 53.9766 118.789C54.2422 118.591 54.5391 118.443 54.8672 118.344C55.2005 118.245 55.5547 118.196 55.9297 118.196C56.5911 118.196 57.1536 118.308 57.6172 118.531C58.0807 118.75 58.4349 119.091 58.6797 119.555C58.9297 120.018 59.0547 120.62 59.0547 121.36V127H57.2188V121.703C57.2188 121.031 57.0807 120.529 56.8047 120.196C56.5286 119.857 56.1016 119.688 55.5234 119.688C54.9661 119.688 54.5234 119.805 54.1953 120.039C53.8724 120.268 53.6406 120.61 53.5 121.063C53.3594 121.511 53.2891 122.058 53.2891 122.703V127H51.4531V114.844H53.2891ZM65.0156 118.188C66.1094 118.188 66.9349 118.43 67.4922 118.914C68.0547 119.399 68.3359 120.154 68.3359 121.18V127H67.0312L66.6797 125.774H66.6172C66.3724 126.086 66.1198 126.344 65.8594 126.547C65.599 126.75 65.2969 126.901 64.9531 127C64.6146 127.104 64.2005 127.156 63.7109 127.156C63.1953 127.156 62.7344 127.063 62.3281 126.875C61.9219 126.683 61.6016 126.391 61.3672 126C61.1328 125.61 61.0156 125.115 61.0156 124.516C61.0156 123.625 61.3464 122.956 62.0078 122.508C62.6745 122.06 63.6797 121.813 65.0234 121.766L66.5234 121.711V121.258C66.5234 120.659 66.3828 120.232 66.1016 119.977C65.8255 119.722 65.4349 119.594 64.9297 119.594C64.4974 119.594 64.0781 119.656 63.6719 119.781C63.2656 119.906 62.8698 120.06 62.4844 120.242L61.8906 118.946C62.3125 118.722 62.7917 118.539 63.3281 118.399C63.8698 118.258 64.4323 118.188 65.0156 118.188ZM66.5156 122.867L65.3984 122.906C64.4818 122.938 63.8385 123.094 63.4688 123.375C63.099 123.656 62.9141 124.042 62.9141 124.531C62.9141 124.959 63.0417 125.271 63.2969 125.469C63.5521 125.662 63.888 125.758 64.3047 125.758C64.9401 125.758 65.4661 125.578 65.8828 125.219C66.3047 124.854 66.5156 124.321 66.5156 123.617V122.867ZM74.125 125.672C74.3646 125.672 74.6016 125.651 74.8359 125.61C75.0703 125.563 75.2839 125.508 75.4766 125.446V126.836C75.2734 126.925 75.0104 127 74.6875 127.063C74.3646 127.125 74.0286 127.156 73.6797 127.156C73.1901 127.156 72.75 127.076 72.3594 126.914C71.9688 126.748 71.6589 126.464 71.4297 126.063C71.2005 125.662 71.0859 125.107 71.0859 124.399V119.75H69.9062V118.93L71.1719 118.281L71.7734 116.43H72.9297V118.352H75.4062V119.75H72.9297V124.375C72.9297 124.813 73.0391 125.138 73.2578 125.352C73.4766 125.565 73.7656 125.672 74.125 125.672ZM88.4609 126.992L87.3672 122.969C87.3151 122.771 87.2526 122.531 87.1797 122.25C87.1068 121.969 87.0339 121.68 86.9609 121.383C86.888 121.081 86.8203 120.802 86.7578 120.547C86.7005 120.292 86.6562 120.094 86.625 119.953H86.5625C86.5365 120.094 86.4948 120.292 86.4375 120.547C86.3802 120.802 86.3151 121.081 86.2422 121.383C86.1693 121.685 86.0964 121.979 86.0234 122.266C85.9557 122.552 85.8932 122.797 85.8359 123L84.6875 126.992H82.6719L80.25 118.344H82.1094L83.2344 122.641C83.3073 122.933 83.3776 123.248 83.4453 123.586C83.5182 123.925 83.5807 124.248 83.6328 124.555C83.6849 124.862 83.724 125.115 83.75 125.313H83.8125C83.8333 125.172 83.862 124.995 83.8984 124.781C83.9349 124.563 83.9766 124.336 84.0234 124.102C84.0703 123.862 84.1172 123.638 84.1641 123.43C84.2109 123.216 84.2552 123.045 84.2969 122.914L85.625 118.344H87.6328L88.9062 122.914C88.9635 123.112 89.026 123.362 89.0938 123.664C89.1615 123.961 89.2214 124.261 89.2734 124.563C89.3307 124.86 89.3672 125.107 89.3828 125.305H89.4453C89.4661 125.128 89.5026 124.888 89.5547 124.586C89.612 124.279 89.6771 123.953 89.75 123.61C89.8229 123.261 89.8984 122.938 89.9766 122.641L91.125 118.344H92.9531L90.5156 126.992H88.4609ZM96.2734 118.352V127H94.4375V118.352H96.2734ZM95.3672 115.039C95.6484 115.039 95.8906 115.115 96.0938 115.266C96.3021 115.417 96.4062 115.677 96.4062 116.047C96.4062 116.412 96.3021 116.672 96.0938 116.828C95.8906 116.979 95.6484 117.055 95.3672 117.055C95.0755 117.055 94.8281 116.979 94.625 116.828C94.4271 116.672 94.3281 116.412 94.3281 116.047C94.3281 115.677 94.4271 115.417 94.625 115.266C94.8281 115.115 95.0755 115.039 95.3672 115.039ZM102.125 125.672C102.365 125.672 102.602 125.651 102.836 125.61C103.07 125.563 103.284 125.508 103.477 125.446V126.836C103.273 126.925 103.01 127 102.688 127.063C102.365 127.125 102.029 127.156 101.68 127.156C101.19 127.156 100.75 127.076 100.359 126.914C99.9688 126.748 99.6589 126.464 99.4297 126.063C99.2005 125.662 99.0859 125.107 99.0859 124.399V119.75H97.9062V118.93L99.1719 118.281L99.7734 116.43H100.93V118.352H103.406V119.75H100.93V124.375C100.93 124.813 101.039 125.138 101.258 125.352C101.477 125.565 101.766 125.672 102.125 125.672ZM107.07 114.844V117.899C107.07 118.216 107.06 118.526 107.039 118.828C107.023 119.13 107.005 119.365 106.984 119.531H107.086C107.268 119.229 107.492 118.982 107.758 118.789C108.023 118.591 108.32 118.443 108.648 118.344C108.982 118.245 109.336 118.196 109.711 118.196C110.372 118.196 110.935 118.308 111.398 118.531C111.862 118.75 112.216 119.091 112.461 119.555C112.711 120.018 112.836 120.62 112.836 121.36V127H111V121.703C111 121.031 110.862 120.529 110.586 120.196C110.31 119.857 109.883 119.688 109.305 119.688C108.747 119.688 108.305 119.805 107.977 120.039C107.654 120.268 107.422 120.61 107.281 121.063C107.141 121.511 107.07 122.058 107.07 122.703V127H105.234V114.844H107.07ZM127.102 118.352V127H125.656L125.406 125.836H125.305C125.122 126.133 124.891 126.38 124.609 126.578C124.328 126.771 124.016 126.914 123.672 127.008C123.328 127.107 122.966 127.156 122.586 127.156C121.935 127.156 121.378 127.047 120.914 126.828C120.456 126.604 120.104 126.261 119.859 125.797C119.615 125.334 119.492 124.735 119.492 124V118.352H121.336V123.656C121.336 124.328 121.471 124.831 121.742 125.164C122.018 125.498 122.445 125.664 123.023 125.664C123.581 125.664 124.023 125.55 124.352 125.321C124.68 125.091 124.911 124.753 125.047 124.305C125.188 123.857 125.258 123.308 125.258 122.656V118.352H127.102ZM135.547 124.531C135.547 125.099 135.409 125.578 135.133 125.969C134.857 126.36 134.453 126.656 133.922 126.86C133.396 127.058 132.75 127.156 131.984 127.156C131.38 127.156 130.859 127.112 130.422 127.024C129.99 126.94 129.581 126.81 129.195 126.633V125.047C129.607 125.24 130.068 125.406 130.578 125.547C131.094 125.688 131.581 125.758 132.039 125.758C132.643 125.758 133.078 125.664 133.344 125.477C133.609 125.284 133.742 125.029 133.742 124.711C133.742 124.524 133.688 124.357 133.578 124.211C133.474 124.06 133.276 123.906 132.984 123.75C132.698 123.589 132.276 123.396 131.719 123.172C131.172 122.953 130.711 122.735 130.336 122.516C129.961 122.297 129.677 122.034 129.484 121.727C129.292 121.414 129.195 121.016 129.195 120.531C129.195 119.766 129.497 119.185 130.102 118.789C130.711 118.388 131.516 118.188 132.516 118.188C133.047 118.188 133.547 118.242 134.016 118.352C134.49 118.456 134.953 118.61 135.406 118.813L134.828 120.196C134.438 120.024 134.044 119.883 133.648 119.774C133.258 119.659 132.859 119.602 132.453 119.602C131.979 119.602 131.617 119.675 131.367 119.821C131.122 119.966 131 120.175 131 120.446C131 120.649 131.06 120.821 131.18 120.961C131.299 121.102 131.505 121.242 131.797 121.383C132.094 121.524 132.505 121.698 133.031 121.906C133.547 122.104 133.992 122.313 134.367 122.531C134.747 122.745 135.039 123.008 135.242 123.321C135.445 123.633 135.547 124.037 135.547 124.531Z" fill="#EDEEF0"/>
<path d="M369.765 86.2215L372.743 85.6963L374.166 91.5876L370.443 92.2441L369.765 86.2215Z" fill="black"/>
<rect x="337.307" y="98.0867" width="71.0741" height="27.2199" rx="10.7143" transform="rotate(-10 337.307 98.0867)" fill="black"/>
<path d="M365.686 93.0829L372.305 91.9159L369.326 96.1701C368.413 97.4732 366.381 97.0226 366.104 95.4559L365.686 93.0829Z" fill="white"/>
<path d="M378.923 90.7489L372.305 91.9159L376.559 94.8947C377.862 95.8072 379.618 94.6886 379.342 93.1219L378.923 90.7489Z" fill="white"/>
<path d="M394.356 106.423C394.564 106.386 394.763 106.33 394.951 106.254C395.144 106.177 395.333 106.089 395.517 105.992L395.767 107.411C395.578 107.538 395.339 107.658 395.044 107.771C394.755 107.886 394.432 107.976 394.074 108.039C393.659 108.113 393.271 108.112 392.915 108.038C392.562 107.958 392.261 107.769 392.011 107.47C391.764 107.165 391.587 106.713 391.482 106.113L390.887 102.743L390.007 103.076L389.754 101.645L390.637 101.322L390.373 99.8251L392.218 99.1535L392.482 100.652L394.376 99.9621L394.628 101.394L392.734 102.084L393.385 105.776C393.432 106.043 393.543 106.23 393.716 106.336C393.893 106.439 394.107 106.467 394.356 106.423Z" fill="white" stroke="white" stroke-width="0.892857" stroke-linejoin="round"/>
<ellipse cx="344.802" cy="64.1349" rx="12.0977" ry="15.1222" transform="rotate(-10 344.802 64.1349)" fill="black"/>
<path d="M390.186 48.4548C387.648 34.0613 375.414 24.1876 362.859 26.4013C350.305 28.615 342.185 42.0778 344.723 56.4713" stroke="black" stroke-width="3.57143"/>
<circle cx="366.724" cy="60.2695" r="26.4638" transform="rotate(-10 366.724 60.2695)" fill="#08E8DE"/>
<ellipse cx="392.786" cy="55.6742" rx="12.0977" ry="15.1222" transform="rotate(-10 392.786 55.6742)" fill="black"/>
<path d="M373.391 69.3146C372.238 66.9508 369.387 65.9692 367.023 67.1221C364.659 68.275 363.678 71.1258 364.831 73.4896C365.984 75.8533 368.834 76.8349 371.198 75.6821C373.562 74.5292 374.543 71.6784 373.391 69.3146ZM386.301 62.0243L368.719 70.5996L369.502 72.2046L387.084 63.6293L386.301 62.0243Z" fill="black"/>
<path d="M352.189 50.8034C352.189 50.8034 352.467 64.4562 360.384 63.0602C368.301 61.6643 364.237 48.6791 364.237 48.6791" stroke="black" stroke-width="3.57143"/>
<circle cx="313.479" cy="57.1229" r="11.5512" transform="rotate(37.6789 313.479 57.1229)" fill="#FF7DF3"/>
<path d="M300.541 48.1405C300.222 47.4779 300.796 46.7346 301.518 46.8765L307.007 47.9548L302.972 53.1788L300.541 48.1405Z" fill="#FF7DF3"/>
<path d="M272.924 93.0059L286.165 79.4847L331.537 75.5152C335.467 75.1714 338.932 78.0785 339.275 82.0083L341.179 103.765C341.523 107.695 338.616 111.16 334.686 111.504L282.115 116.103C278.185 116.447 274.72 113.54 274.376 109.61L272.924 93.0059Z" fill="#FFF000"/>
<path d="M284.119 79.6637L284.57 84.8168C284.914 88.7467 282.007 92.2112 278.077 92.555L272.924 93.0059L284.119 79.6637Z" fill="#FFAA1D"/>
<path d="M344.362 86.0659C345.046 86.3363 345.128 87.2718 344.501 87.657L339.765 90.5664L339.193 84.023L344.362 86.0659Z" fill="#FFF000"/>
</svg>
