<svg width="24" height="24" viewBox="0 0 24 24" fill="none" xmlns="http://www.w3.org/2000/svg">
<path d="M12 3.875C10.393 3.875 8.82214 4.35152 7.486 5.24431C6.14985 6.1371 5.10844 7.40605 4.49348 8.8907C3.87852 10.3753 3.71762 12.009 4.03112 13.5851C4.34463 15.1612 5.11846 16.6089 6.25476 17.7452C7.39106 18.8815 8.8388 19.6554 10.4149 19.9689C11.991 20.2824 13.6247 20.1215 15.1093 19.5065C16.594 18.8916 17.8629 17.8502 18.7557 16.514C19.6485 15.1779 20.125 13.607 20.125 12C20.1227 9.84581 19.266 7.78051 17.7427 6.25727C16.2195 4.73403 14.1542 3.87727 12 3.875ZM18.875 12C18.8757 12.882 18.7059 13.7558 18.375 14.5734L14.8828 12.4258C14.7343 12.3342 14.5682 12.2748 14.3953 12.2516L12.6125 12.0109C12.3668 11.9789 12.1172 12.0201 11.8948 12.1293C11.6725 12.2386 11.4873 12.411 11.3625 12.625H10.6813L10.3844 12.0109C10.3023 11.84 10.1822 11.69 10.0332 11.5726C9.88428 11.4552 9.71043 11.3734 9.525 11.3336L8.9 11.1984L9.51094 10.125H10.8164C11.0277 10.1246 11.2354 10.0708 11.4203 9.96875L12.3773 9.44062C12.4614 9.39376 12.54 9.33768 12.6117 9.27344L14.7141 7.37188C14.9248 7.18298 15.0649 6.92788 15.1112 6.64865C15.1575 6.36942 15.1073 6.08276 14.9688 5.83594L14.9406 5.78516C16.117 6.34297 17.1111 7.22296 17.8075 8.32301C18.5039 9.42306 18.8741 10.698 18.875 12ZM5.125 12C5.12396 10.9781 5.35194 9.96904 5.79219 9.04688L6.67813 11.4117C6.75196 11.6075 6.87376 11.7817 7.03237 11.9181C7.19098 12.0546 7.38132 12.1491 7.58594 12.193L9.26016 12.5531L9.55782 13.1719C9.66112 13.3823 9.82121 13.5597 10.02 13.6839C10.2188 13.8082 10.4484 13.8744 10.6828 13.875H10.7984L10.2336 15.143C10.1341 15.3662 10.1022 15.6138 10.1419 15.855C10.1816 16.0962 10.2912 16.3204 10.457 16.5L10.468 16.5109L12 18.0891L11.8484 18.8703C10.053 18.8285 8.34497 18.0867 7.08885 16.8031C5.83273 15.5196 5.12798 13.7959 5.125 12Z" fill="#7E808A"/>
</svg>
