<svg width="35" height="24" viewBox="0 0 35 24" fill="none" xmlns="http://www.w3.org/2000/svg">
<rect y="2.00024" width="35" height="20" rx="6" fill="#E4E4E9"/>
<path d="M10.8396 9.33757C10.4059 8.91535 9.82557 8.68343 9.22184 8.69533C8.11987 8.69533 7.18789 9.45056 6.85378 10.4675L6.85241 10.4664C6.67813 11.0002 6.67844 11.5752 6.85378 12.1028C7.18789 13.1138 8.11987 13.869 9.22184 13.869C9.7904 13.869 10.2767 13.7203 10.6577 13.4587C11.1032 13.1613 11.408 12.6856 11.5018 12.1563H9.22167V10.5091H13.2016C13.2485 10.7945 13.272 11.0859 13.272 11.3773C13.272 12.6856 12.8148 13.7857 12.0176 14.5291C11.3201 15.1832 10.359 15.5638 9.22184 15.5638C7.6275 15.5638 6.16798 14.654 5.45288 13.2089V13.203C4.84904 11.9958 4.84904 10.5686 5.45287 9.36136C6.16798 7.9163 7.6275 7.0005 9.22184 7.0005C10.271 6.98861 11.2792 7.38704 12.0471 8.11254L10.8396 9.33757Z" fill="#8B8D98"/>
<path fill-rule="evenodd" clip-rule="evenodd" d="M16.53 15.0524V12.0314H18.0892C18.7281 12.0314 19.2674 11.8173 19.707 11.3951L19.8125 11.2881C20.6155 10.4139 20.5628 9.05211 19.707 8.24335C19.2791 7.81519 18.6929 7.58326 18.0892 7.59516H15.5863V15.0524H16.53ZM16.53 11.1156V8.51091H18.1129C18.4529 8.51091 18.7754 8.64174 19.0157 8.87961C19.5258 9.37913 19.5375 10.2117 19.045 10.729C18.8047 10.9848 18.4647 11.1275 18.1129 11.1156H16.53Z" fill="#8B8D98"/>
<path fill-rule="evenodd" clip-rule="evenodd" d="M24.2146 10.3485C23.8101 9.97382 23.2592 9.78353 22.5616 9.78353C21.6648 9.78353 20.9908 10.1165 20.5453 10.7766L21.3776 11.3059C21.6824 10.8539 22.0986 10.628 22.6261 10.628C22.9602 10.628 23.2826 10.7528 23.5347 10.9788C23.7808 11.1929 23.9215 11.5021 23.9215 11.8292V12.0492C23.5581 11.847 23.1009 11.74 22.5382 11.74C21.8817 11.74 21.3542 11.8946 20.9614 12.2098C20.5687 12.525 20.3694 12.9412 20.3694 13.4705C20.3577 13.9522 20.5629 14.4101 20.9263 14.7193C21.2956 15.0523 21.7645 15.2189 22.3155 15.2189C22.9661 15.2189 23.4819 14.9275 23.8746 14.3447H23.9157V15.0523H24.8183V11.9065C24.8183 11.2464 24.619 10.7231 24.2146 10.3485ZM21.6533 14.1128C21.4598 13.9701 21.3426 13.7381 21.3426 13.4884C21.3426 13.2089 21.4716 12.9769 21.7236 12.7926C21.9816 12.6083 22.304 12.5131 22.6851 12.5131C23.2127 12.5072 23.6231 12.6261 23.9162 12.864C23.9162 13.2683 23.7579 13.6192 23.4472 13.9165C23.1658 14.202 22.7847 14.3625 22.3861 14.3625C22.1223 14.3685 21.8643 14.2793 21.6533 14.1128Z" fill="#8B8D98"/>
<path d="M30 9.95003L26.8465 17.2943H25.8735L27.0458 14.7253L24.9767 9.95003H26.0024L27.4971 13.6132H27.5147L28.9742 9.95003H30Z" fill="#8B8D98"/>
</svg>
