<svg width="16" height="22" viewBox="0 0 16 22" fill="none" xmlns="http://www.w3.org/2000/svg">
<path d="M8 7.50037C6.71442 7.50037 5.45772 7.88158 4.3888 8.59581C3.31988 9.31004 2.48676 10.3252 1.99479 11.5129C1.50282 12.7006 1.37409 14.0076 1.6249 15.2685C1.8757 16.5293 2.49477 17.6875 3.40381 18.5966C4.31285 19.5056 5.47104 20.1247 6.73192 20.3755C7.99279 20.6263 9.29973 20.4976 10.4874 20.0056C11.6752 19.5136 12.6903 18.6805 13.4046 17.6116C14.1188 16.5427 14.5 15.2859 14.5 14.0004C14.4982 12.277 13.8128 10.6248 12.5942 9.40618C11.3756 8.18759 9.72335 7.50219 8 7.50037ZM7.75 10.5004C7.89834 10.5004 8.04334 10.5444 8.16668 10.6268C8.29002 10.7092 8.38615 10.8263 8.44291 10.9634C8.49968 11.1004 8.51453 11.2512 8.48559 11.3967C8.45665 11.5422 8.38522 11.6758 8.28033 11.7807C8.17544 11.8856 8.04181 11.957 7.89632 11.986C7.75083 12.0149 7.60003 12 7.46299 11.9433C7.32595 11.8865 7.20881 11.7904 7.1264 11.667C7.04399 11.5437 7 11.3987 7 11.2504C7 11.0515 7.07902 10.8607 7.21967 10.72C7.36032 10.5794 7.55109 10.5004 7.75 10.5004ZM8.5 17.5004C8.23479 17.5004 7.98043 17.395 7.7929 17.2075C7.60536 17.0199 7.5 16.7656 7.5 16.5004V14.0004C7.36739 14.0004 7.24022 13.9477 7.14645 13.8539C7.05268 13.7602 7 13.633 7 13.5004C7 13.3678 7.05268 13.2406 7.14645 13.1468C7.24022 13.053 7.36739 13.0004 7.5 13.0004C7.76522 13.0004 8.01957 13.1057 8.20711 13.2933C8.39465 13.4808 8.5 13.7351 8.5 14.0004V16.5004C8.63261 16.5004 8.75979 16.553 8.85356 16.6468C8.94732 16.7406 9 16.8678 9 17.0004C9 17.133 8.94732 17.2602 8.85356 17.3539C8.75979 17.4477 8.63261 17.5004 8.5 17.5004Z" fill="black"/>
</svg>
